<svg version="1.1" viewBox="0.0 0.0 755.9055118110236 755.9055118110236" fill="none" stroke="none" stroke-linecap="square" stroke-miterlimit="10" xmlns:xlink="http://www.w3.org/1999/xlink" xmlns="http://www.w3.org/2000/svg"><clipPath id="p.0"><path d="m0 0l755.9055 0l0 755.9055l-755.9055 0l0 -755.9055z" clip-rule="nonzero"/></clipPath><g clip-path="url(#p.0)"><path fill="#000000" fill-opacity="0.0" d="m0 0l755.9055 0l0 755.9055l-755.9055 0z" fill-rule="evenodd"/><path fill="#674ea7" d="m37.795277 377.95276l0 0c0 -187.86378 152.2937 -340.15747 340.15747 -340.15747l0 0c90.21536 0 176.73578 35.837917 240.52765 99.62982c63.79193 63.7919 99.62982 150.3123 99.62982 240.52766l0 0c0 187.86377 -152.2937 340.15747 -340.15747 340.15747l0 0c-187.86378 0 -340.15747 -152.2937 -340.15747 -340.15747z" fill-rule="evenodd"/><path stroke="#000000" stroke-width="16.0" stroke-linejoin="round" stroke-linecap="butt" d="m37.795277 377.95276l0 0c0 -187.86378 152.2937 -340.15747 340.15747 -340.15747l0 0c90.21536 0 176.73578 35.837917 240.52765 99.62982c63.79193 63.7919 99.62982 150.3123 99.62982 240.52766l0 0c0 187.86377 -152.2937 340.15747 -340.15747 340.15747l0 0c-187.86378 0 -340.15747 -152.2937 -340.15747 -340.15747z" fill-rule="evenodd"/><path fill="#000000" d="m269.2255 227.23396q-33.140625 12.59375 -51.34375 38.968765q-18.1875 26.359375 -18.1875 64.625q0 17.265625 3.265625 24.03125q3.265625 6.765625 3.265625 7.703125q-25.203125 0 -37.578125 -10.5q-12.359375 -10.5 -12.359375 -34.765625q0 -29.875 24.5 -58.109375q24.5 -28.23439 62.765625 -45.718765q38.265625 -17.5 76.53125 -17.5q6.53125 0 18.671875 0.921875l4.203125 287.0l97.984406 -285.59375l59.265625 0l4.203125 285.59375l98.0 -285.59375l32.671875 0l-129.73438 347.65625l-67.203125 0l-5.59375 -237.53122l-88.671906 237.53122l-67.1875 0l-7.46875 -318.71875z" fill-rule="nonzero"/></g></svg>